<svg width="24" height="24" viewBox="0 0 24 24" fill="none" xmlns="http://www.w3.org/2000/svg" data-reactroot="">
<path fill="none" d="M21 12C21 13.18 20.77 14.35 20.32 15.44C19.87 16.53 19.21 17.52 18.37 18.36C17.53 19.2 16.54 19.86 15.45 20.31C14.36 20.76 13.18 21 12 21C10.82 21 9.65 20.77 8.56 20.32C7.47 19.87 6.48001 19.21 5.64001 18.37C4.80001 17.53 4.14 16.54 3.69 15.45C3.24 14.36 3 13.18 3 12C3 9.61 3.95001 7.32 5.64001 5.64C7.33001 3.95 9.62 3 12 3C14.38 3 16.68 3.95 18.36 5.64C20.05 7.32 21 9.61 21 12Z" undefined="1"></path>
<path stroke-linejoin="round" stroke-linecap="round" stroke-width="1" stroke="#000" d="M8 16L10.88 13.12"></path>
<path fill="none" d="M10.88 13.12C11.16 13.4 11.49 13.63 11.85 13.78C12.22 13.93 12.61 14.01 13 14.01C13.4 14.01 13.79 13.93 14.15 13.78C14.52 13.63 14.85 13.41 15.13 13.13C15.41 12.85 15.63 12.52 15.78 12.15C15.93 11.78 16.01 11.39 16.01 11C16.01 10.6 15.93 10.21 15.77 9.85002C15.62 9.49002 15.39 9.15002 15.11 8.88002C14.55 8.33002 13.78 8.02002 12.99 8.02002C12.2 8.02002 11.44 8.34001 10.88 8.90001C10.32 9.46001 10 10.22 10 11.01C10.01 11.8 10.32 12.56 10.88 13.12Z" undefined="1"></path>
<path stroke-linejoin="round" stroke-linecap="round" stroke-width="1" stroke="#000" d="M10.88 13.12C11.16 13.4 11.49 13.63 11.85 13.78C12.22 13.93 12.61 14.01 13 14.01C13.4 14.01 13.79 13.93 14.15 13.78C14.52 13.63 14.85 13.41 15.13 13.13C15.41 12.85 15.63 12.52 15.78 12.15C15.93 11.78 16.01 11.39 16.01 11C16.01 10.6 15.93 10.21 15.77 9.85002C15.62 9.49002 15.39 9.15002 15.11 8.88002C14.55 8.33002 13.78 8.02002 12.99 8.02002C12.2 8.02002 11.44 8.34001 10.88 8.90001C10.32 9.46001 10 10.22 10 11.01C10.01 11.8 10.32 12.56 10.88 13.12Z"></path>
</svg>